<?xml version="1.0" encoding="utf-8"?>
<!-- Generator: Adobe Illustrator 16.0.4, SVG Export Plug-In . SVG Version: 6.00 Build 0)  -->
<!DOCTYPE svg PUBLIC "-//W3C//DTD SVG 1.1//EN" "http://www.w3.org/Graphics/SVG/1.1/DTD/svg11.dtd">
<svg version="1.1" id="Layer_1" xmlns="http://www.w3.org/2000/svg" xmlns:xlink="http://www.w3.org/1999/xlink" x="0px" y="0px"
	 width="204px" height="82px" viewBox="0 0 204 82" enable-background="new 0 0 204 82" xml:space="preserve">
<g>
	
		<radialGradient id="SVGID_1_" cx="26.5312" cy="3.5049" r="41.473" gradientTransform="matrix(0.6425 0.7663 -2.3334 1.9562 17.6647 -23.6831)" gradientUnits="userSpaceOnUse">
		<stop  offset="0" style="stop-color:#3D3D3D"/>
		<stop  offset="1" style="stop-color:#080808"/>
	</radialGradient>
	<rect x="21.211" y="2.041" fill="url(#SVGID_1_)" width="31.175" height="29.781"/>
	<g opacity="0.5">
		<path d="M25.399,14.372c-0.008,0.037-0.017,0.071-0.023,0.113c-0.262,1.63,0.847,3.166,2.477,3.428
			c0.347,0.057,0.689,0.046,1.017-0.015l-0.502,3.113c-0.088,0.541,0.28,1.053,0.824,1.141c0.543,0.088,1.055-0.279,1.142-0.823
			l1.268-7.864c0.088-0.543-0.281-1.055-0.823-1.141c-0.545-0.088-1.055,0.279-1.142,0.824l-0.088,0.546
			c-0.003-0.001-0.004-0.002-0.006-0.002l-0.226,1.396c-0.087,0.545-0.599,0.912-1.143,0.823c-0.542-0.086-0.912-0.596-0.824-1.141
			l0.22-1.356c-0.002,0-0.003,0-0.006,0l0.095-0.587c0.088-0.543-0.28-1.054-0.825-1.14c-0.54-0.088-1.052,0.278-1.14,0.823
			l-0.289,1.796C25.4,14.331,25.401,14.35,25.399,14.372z"/>
		<path d="M34.85,4.954c-0.039,0.006-0.074,0.01-0.115,0.014c-1.632,0.247-2.755,1.771-2.51,3.402
			c0.053,0.348,0.167,0.671,0.324,0.964l-3.118,0.471c-0.543,0.081-0.919,0.59-0.837,1.134c0.083,0.543,0.59,0.919,1.133,0.835
			l7.879-1.189c0.542-0.081,0.916-0.588,0.834-1.131c-0.081-0.546-0.589-0.921-1.133-0.839l-0.548,0.084
			c0.001-0.002,0.001-0.004,0.001-0.007l-1.4,0.212c-0.543,0.083-1.049-0.291-1.132-0.836c-0.083-0.543,0.291-1.051,0.836-1.133
			l1.359-0.206c0,0,0-0.002-0.003-0.002l0.587-0.09c0.545-0.082,0.92-0.59,0.836-1.133c-0.081-0.544-0.589-0.92-1.132-0.835
			l-1.8,0.272C34.891,4.943,34.872,4.95,34.85,4.954z"/>
		<path d="M31.312,26.966c0.032,0.019,0.063,0.037,0.101,0.057c1.475,0.74,3.27,0.146,4.012-1.33
			c0.158-0.314,0.253-0.644,0.294-0.974l2.817,1.417c0.493,0.245,1.09,0.048,1.337-0.443c0.248-0.492,0.048-1.09-0.442-1.337
			l-7.118-3.579c-0.492-0.245-1.091-0.047-1.337,0.445c-0.246,0.49-0.048,1.09,0.443,1.337l0.494,0.249
			c-0.001,0.001-0.002,0.002-0.003,0.004l1.264,0.636c0.49,0.246,0.69,0.846,0.442,1.337c-0.247,0.491-0.845,0.688-1.337,0.443
			L31.05,24.61v0.002l-0.532-0.267c-0.491-0.246-1.088-0.047-1.335,0.444c-0.248,0.491-0.049,1.088,0.441,1.334l1.628,0.821
			C31.272,26.953,31.292,26.957,31.312,26.966z"/>
		<path d="M44.495,24.849c0.028-0.022,0.055-0.048,0.085-0.077c1.166-1.17,1.162-3.062-0.007-4.227
			c-0.248-0.25-0.531-0.442-0.832-0.583l2.228-2.233c0.388-0.389,0.387-1.021-0.002-1.407c-0.391-0.389-1.021-0.389-1.409,0
			l-5.625,5.64c-0.389,0.391-0.388,1.021,0.002,1.409c0.389,0.389,1.02,0.389,1.408-0.002l0.392-0.394
			c0.001,0.003,0.002,0.004,0.003,0.006l0.999-1.002c0.389-0.389,1.02-0.389,1.408,0c0.389,0.387,0.391,1.018,0.001,1.408
			l-0.971,0.973c0,0,0.002,0.002,0.004,0.002l-0.419,0.421c-0.388,0.391-0.388,1.019,0.002,1.407s1.021,0.387,1.407-0.002
			l1.287-1.288C44.47,24.885,44.481,24.867,44.495,24.849z"/>
		<path d="M46.892,11.446c-0.016-0.036-0.03-0.069-0.048-0.107c-0.746-1.472-2.544-2.063-4.017-1.317
			c-0.314,0.159-0.586,0.367-0.813,0.609L40.59,7.816c-0.25-0.491-0.848-0.686-1.339-0.44c-0.488,0.249-0.688,0.848-0.439,1.34
			l3.596,7.108c0.248,0.489,0.848,0.688,1.338,0.438c0.49-0.248,0.688-0.847,0.44-1.339l-0.252-0.493c0.002,0,0.005,0,0.007,0
			l-0.64-1.266c-0.247-0.49-0.05-1.089,0.44-1.336c0.49-0.249,1.089-0.055,1.339,0.439l0.619,1.226c0,0,0.002-0.001,0.003-0.002
			l0.27,0.53c0.248,0.489,0.846,0.686,1.337,0.437c0.491-0.247,0.687-0.846,0.438-1.335l-0.821-1.627
			C46.916,11.479,46.903,11.465,46.892,11.446z"/>
	</g>
	<g>
		<g>
			<path fill="#99CC00" d="M25.399,14.769c-0.008,0.037-0.017,0.07-0.023,0.112c-0.262,1.631,0.847,3.165,2.477,3.426
				c0.347,0.06,0.689,0.046,1.017-0.013l-0.502,3.114c-0.088,0.541,0.28,1.052,0.824,1.14c0.543,0.088,1.055-0.28,1.142-0.822
				L31.6,13.86c0.088-0.542-0.281-1.054-0.823-1.142c-0.545-0.088-1.055,0.281-1.142,0.825l-0.088,0.548
				c-0.003-0.002-0.004-0.003-0.006-0.003l-0.226,1.397c-0.087,0.542-0.599,0.91-1.143,0.821c-0.542-0.086-0.912-0.597-0.824-1.141
				l0.22-1.355c-0.002,0-0.003,0-0.006,0l0.095-0.589c0.088-0.542-0.28-1.051-0.825-1.139c-0.54-0.088-1.052,0.28-1.14,0.824
				l-0.289,1.796C25.4,14.726,25.401,14.746,25.399,14.769z"/>
			<path fill="#99CC00" d="M34.85,5.349c-0.039,0.006-0.074,0.01-0.115,0.014c-1.632,0.248-2.755,1.771-2.51,3.403
				c0.053,0.348,0.167,0.671,0.324,0.963L29.431,10.2c-0.543,0.082-0.919,0.591-0.837,1.133c0.083,0.545,0.59,0.92,1.133,0.837
				l7.879-1.19c0.542-0.081,0.916-0.587,0.834-1.132c-0.081-0.544-0.589-0.92-1.133-0.838l-0.548,0.084
				c0.001-0.001,0.001-0.003,0.001-0.007l-1.4,0.211c-0.543,0.084-1.049-0.291-1.132-0.835s0.291-1.051,0.836-1.133l1.359-0.207
				c0,0,0,0-0.003-0.004l0.587-0.088c0.545-0.082,0.92-0.59,0.836-1.131c-0.081-0.546-0.589-0.92-1.132-0.838l-1.8,0.272
				C34.891,5.337,34.872,5.345,34.85,5.349z"/>
			<path fill="#99CC00" d="M31.312,27.361c0.032,0.021,0.063,0.037,0.101,0.056c1.475,0.742,3.27,0.146,4.012-1.329
				c0.158-0.313,0.253-0.644,0.294-0.973l2.817,1.415c0.493,0.247,1.09,0.048,1.337-0.442c0.248-0.49,0.048-1.089-0.442-1.336
				l-7.118-3.578c-0.492-0.246-1.091-0.048-1.337,0.443s-0.048,1.092,0.443,1.339l0.494,0.247c-0.001,0-0.002,0.002-0.003,0.004
				l1.264,0.636c0.49,0.247,0.69,0.846,0.442,1.337c-0.247,0.489-0.845,0.688-1.337,0.443l-1.229-0.618c0,0.002,0,0.003,0,0.003
				l-0.532-0.266c-0.491-0.247-1.088-0.048-1.335,0.443c-0.248,0.491-0.049,1.09,0.441,1.335l1.628,0.819
				C31.272,27.348,31.292,27.353,31.312,27.361z"/>
			<path fill="#99CC00" d="M44.495,25.244c0.028-0.023,0.055-0.047,0.085-0.075c1.166-1.173,1.162-3.062-0.007-4.228
				c-0.248-0.25-0.531-0.443-0.832-0.585l2.228-2.234c0.388-0.389,0.387-1.018-0.002-1.407c-0.391-0.387-1.021-0.387-1.409,0.001
				l-5.625,5.642c-0.389,0.391-0.388,1.019,0.002,1.41c0.389,0.387,1.02,0.387,1.408-0.005l0.392-0.393
				c0.001,0.002,0.002,0.004,0.003,0.006l0.999-1.001c0.389-0.388,1.02-0.39,1.408-0.002c0.389,0.389,0.391,1.018,0.001,1.408
				l-0.971,0.974c0,0,0.002,0.002,0.004,0.002l-0.419,0.421c-0.388,0.391-0.388,1.02,0.002,1.408
				c0.39,0.388,1.021,0.386,1.407-0.003l1.287-1.289C44.47,25.28,44.481,25.263,44.495,25.244z"/>
			<path fill="#99CC00" d="M46.892,11.842c-0.016-0.038-0.03-0.068-0.048-0.106c-0.746-1.473-2.544-2.064-4.017-1.319
				c-0.314,0.162-0.586,0.369-0.813,0.61L40.59,8.211c-0.25-0.49-0.848-0.687-1.339-0.438c-0.488,0.25-0.688,0.846-0.439,1.34
				l3.596,7.107c0.248,0.49,0.848,0.688,1.338,0.438c0.49-0.247,0.688-0.848,0.44-1.338l-0.252-0.494c0.002,0,0.005,0,0.007,0
				l-0.64-1.265c-0.247-0.491-0.05-1.09,0.44-1.337c0.49-0.249,1.089-0.053,1.339,0.438l0.619,1.228c0,0,0.002-0.002,0.003-0.004
				l0.27,0.53c0.248,0.491,0.846,0.688,1.337,0.438c0.491-0.249,0.687-0.847,0.438-1.336l-0.821-1.626
				C46.916,11.875,46.903,11.859,46.892,11.842z"/>
		</g>
	</g>
	<g opacity="0.3">
		<g>
			<path d="M27.355,15.491l-0.006,0.03c-0.088,0.547,0.282,1.057,0.824,1.143c0.544,0.088,1.056-0.28,1.143-0.823l0.226-1.397
				c0.002,0,0.003,0.002,0.006,0.002l0.088-0.544c0.087-0.548,0.597-0.913,1.142-0.828c0.432,0.072,0.749,0.409,0.818,0.817
				l0.005-0.031c0.088-0.542-0.281-1.053-0.823-1.141c-0.545-0.089-1.055,0.281-1.142,0.825l-0.088,0.548
				c-0.003-0.002-0.004-0.003-0.006-0.003l-0.226,1.397c-0.087,0.542-0.599,0.91-1.143,0.821
				C27.742,16.239,27.423,15.9,27.355,15.491z"/>
			<path d="M25.375,15.236c0.007-0.041,0.016-0.075,0.023-0.113c0.002-0.021,0.001-0.042,0.005-0.062l0.289-1.798
				c0.088-0.544,0.6-0.913,1.14-0.825c0.434,0.072,0.752,0.411,0.821,0.819l0.004-0.034c0.088-0.542-0.28-1.051-0.825-1.139
				c-0.54-0.088-1.052,0.28-1.14,0.822l-0.289,1.796c-0.004,0.023-0.003,0.042-0.005,0.064c-0.008,0.037-0.017,0.072-0.023,0.114
				c-0.039,0.24-0.039,0.478-0.021,0.711C25.36,15.472,25.356,15.356,25.375,15.236z"/>
			<path d="M28.809,18.655l-0.442,2.753c-0.019,0.108-0.013,0.216,0.005,0.321l0.497-3.08
				C28.849,18.653,28.828,18.651,28.809,18.655z"/>
		</g>
		<g>
			<path d="M28.604,11.369c0.072-0.41,0.394-0.747,0.827-0.813l3.118-0.471c-0.058-0.105-0.103-0.219-0.146-0.334L29.431,10.2
				c-0.543,0.082-0.919,0.591-0.837,1.133C28.596,11.346,28.6,11.355,28.604,11.369z"/>
			<path d="M37.242,9.01l-0.614,0.084c0-0.001,0-0.003,0-0.007l-1.333,0.211C34.763,9.38,34.3,9.021,34.204,8.494
				c-0.02,0.106-0.009,0.216,0.008,0.325c0.083,0.543,0.531,0.917,1.075,0.834l1.341-0.211c0,0.002,0,0.005,0,0.005l0.614-0.082
				c0.531-0.079,1.061,0.279,1.158,0.806c0.018-0.104,0.007-0.212-0.01-0.323C38.31,9.304,37.786,8.928,37.242,9.01z"/>
			<path d="M34.735,5.72c0.041-0.006,0.076-0.009,0.115-0.014c0.021-0.005,0.041-0.013,0.062-0.015l1.8-0.273
				c0.532-0.079,1.026,0.277,1.124,0.806c0.019-0.104,0.025-0.213,0.008-0.323c-0.081-0.546-0.589-0.92-1.132-0.838l-1.8,0.272
				c-0.021,0.002-0.04,0.01-0.062,0.014c-0.039,0.006-0.074,0.01-0.115,0.014c-1.52,0.231-2.582,1.568-2.525,3.067
				C32.32,7.081,33.337,5.933,34.735,5.72z"/>
		</g>
		<g>
			<path d="M30.975,21.973c0.246-0.492,0.845-0.689,1.337-0.443l7.118,3.576c0.29,0.146,0.474,0.417,0.529,0.711
				c0.076-0.423-0.127-0.861-0.529-1.064l-7.118-3.578c-0.492-0.246-1.091-0.048-1.337,0.442c-0.101,0.202-0.124,0.422-0.085,0.627
				C30.907,22.152,30.932,22.061,30.975,21.973z"/>
			<path d="M29.183,25.541c0.247-0.491,0.788-0.69,1.279-0.444l0.479,0.267c0,0,0-0.001,0-0.002l1.282,0.616
				c0.492,0.246,1.117,0.048,1.366-0.441c0.101-0.202,0.137-0.421,0.099-0.627c-0.017,0.092-0.033,0.183-0.078,0.271
				c-0.248,0.489-0.897,0.688-1.39,0.442l-1.279-0.617v0.003l-0.479-0.266c-0.491-0.247-1.06-0.048-1.308,0.443
				c-0.102,0.202-0.11,0.421-0.072,0.627C29.099,25.721,29.138,25.629,29.183,25.541z"/>
		</g>
		<g>
			<path d="M42.178,25.111c-0.002,0-0.004-0.001-0.004-0.001l0.971-0.973c0.241-0.241,0.314-0.572,0.257-0.881
				c-0.035,0.19-0.108,0.377-0.257,0.524l-0.971,0.972c0,0,0.002,0.002,0.004,0.004l-0.419,0.42
				c-0.239,0.241-0.313,0.572-0.256,0.883c0.036-0.193,0.108-0.379,0.256-0.527L42.178,25.111z"/>
			<path d="M38.932,22.713l5.625-5.64c0.389-0.39,1.019-0.39,1.409-0.003c0.148,0.15,0.222,0.335,0.257,0.528
				c0.058-0.312-0.016-0.644-0.257-0.884c-0.391-0.388-1.021-0.388-1.409,0.001l-5.625,5.642c-0.239,0.239-0.313,0.57-0.256,0.883
				C38.711,23.048,38.785,22.86,38.932,22.713z"/>
			<path d="M43.965,20.487l-0.225,0.225c0.301,0.142,0.584,0.334,0.832,0.583c0.54,0.538,0.819,1.234,0.862,1.938
				c0.049-0.824-0.231-1.665-0.862-2.294C44.389,20.755,44.181,20.613,43.965,20.487z"/>
		</g>
		<g>
			<path d="M43.934,14.939c0.002,0,0.005,0,0.007,0l-0.64-1.32c-0.045-0.088-0.069-0.209-0.086-0.301
				c-0.038,0.206-0.016,0.291,0.086,0.495l0.64,1.126C43.939,14.939,43.936,14.939,43.934,14.939l0.252,0.616
				c0.044,0.088,0.068,0.241,0.087,0.333c0.037-0.207,0.015-0.339-0.087-0.542L43.934,14.939z"/>
			<path d="M39.251,8.128c0.491-0.247,1.089-0.051,1.339,0.438l1.424,2.816c0.228-0.243,0.499-0.45,0.813-0.609
				c1.473-0.748,3.271-0.156,4.017,1.316c0.018,0.038,0.032,0.071,0.048,0.106c0.011,0.02,0.023,0.034,0.034,0.053l0.821,1.625
				c0.045,0.09,0.071,0.181,0.087,0.274c0.038-0.208,0.015-0.427-0.087-0.629l-0.821-1.628c-0.011-0.017-0.023-0.032-0.034-0.052
				c-0.016-0.036-0.03-0.066-0.048-0.104c-0.746-1.473-2.544-2.064-4.017-1.319c-0.314,0.16-0.586,0.367-0.813,0.609L40.59,8.211
				c-0.25-0.49-0.848-0.687-1.339-0.438c-0.401,0.204-0.602,0.645-0.526,1.064C38.78,8.542,38.963,8.275,39.251,8.128z"/>
		</g>
	</g>
	<g>
		<g>
			<path fill="#FFFFFF" d="M62.664,18.673l-1.128,3.367c-0.018,0.082-0.05,0.098-0.115,0.098h-1.128
				c-0.081,0-0.114-0.032-0.081-0.132c0.85-2.5,2.354-6.897,3.319-9.726c0.048-0.132,0.08-0.245,0.098-0.671
				c0-0.048,0.032-0.081,0.081-0.081h1.586c0.049,0,0.065,0.016,0.099,0.081c1.16,3.318,2.402,7.031,3.58,10.415
				c0.016,0.081,0,0.113-0.082,0.113h-1.21c-0.065,0-0.098-0.032-0.131-0.082l-1.16-3.383H62.664z M66.08,17.545
				c-0.326-1.096-1.258-3.777-1.553-4.904H64.51c-0.245,1.062-0.947,3.105-1.521,4.904H66.08z"/>
			<path fill="#FFFFFF" d="M70.121,18.265c0-2.404,1.683-4.154,4.135-4.154c0.393,0,0.77,0.033,1.079,0.146v-3.58
				c0-0.063,0.033-0.097,0.099-0.097h1.178c0.065,0,0.081,0.033,0.081,0.097v9.958c0,0.245,0.017,0.556,0.033,0.768
				c0,0.064,0,0.1-0.065,0.131c-0.867,0.507-1.848,0.752-2.78,0.752C71.657,22.285,70.121,20.93,70.121,18.265z M75.334,15.401
				c-0.277-0.146-0.687-0.213-1.128-0.213c-1.7,0-2.697,1.243-2.697,3.01c0,2.175,1.228,2.974,2.518,2.974
				c0.523,0,0.98-0.064,1.308-0.194V15.401z"/>
			<path fill="#FFFFFF" d="M85.653,18.183c0,2.533-1.39,4.103-3.53,4.103c-2.567,0-3.564-2.109-3.564-4.087
				c0-2.386,1.39-4.088,3.579-4.088C84.329,14.11,85.653,15.762,85.653,18.183z M79.931,18.164c0,1.733,0.753,3.091,2.224,3.091
				c1.095,0,2.125-0.834,2.125-3.024c0-1.667-0.621-3.074-2.208-3.074C80.797,15.156,79.931,16.269,79.931,18.164z"/>
			<path fill="#FFFFFF" d="M88.761,10.58c0.081,0,0.099,0.015,0.099,0.097v3.875c0.587-0.277,1.226-0.441,1.911-0.441
				c2.06,0,3.286,1.57,3.286,3.711c0,2.829-2.043,4.464-4.3,4.464c-0.784,0-1.421-0.1-2.157-0.327
				c-0.065-0.033-0.099-0.081-0.099-0.146V10.677c0-0.063,0.033-0.097,0.099-0.097H88.761z M90.428,15.24
				c-0.571,0-1.079,0.096-1.568,0.377v5.458c0.325,0.097,0.652,0.132,1.062,0.132c1.339,0,2.778-1.062,2.778-3.254
				C92.701,16.203,91.801,15.24,90.428,15.24z"/>
			<path fill="#FFFFFF" d="M96.938,18.329c-0.032,1.65,0.834,2.83,2.534,2.83c0.587,0,1.226-0.1,1.881-0.411
				c0.049-0.016,0.08-0.016,0.08,0.065v0.899c0,0.082-0.016,0.13-0.08,0.147c-0.54,0.293-1.212,0.425-2.126,0.425
				c-2.664,0.016-3.662-1.962-3.662-4.038c0-2.371,1.274-4.137,3.417-4.137c2.174,0,2.991,1.799,2.991,3.139
				c0,0.591-0.064,0.934-0.131,0.965c-0.229,0.098-0.866,0.115-1.732,0.115H96.938z M99.8,17.38c0.734,0,0.865-0.031,0.882-0.099
				c0-0.048,0-0.18,0-0.277c0-0.555-0.343-1.881-1.767-1.881c-1.209,0-1.83,1.014-1.96,2.257H99.8z"/>
			<path fill="#FFFFFF" d="M102.498,13.179c0-0.851,0.653-1.535,1.554-1.535c0.882,0,1.534,0.685,1.534,1.535
				c0,0.882-0.668,1.569-1.534,1.569C103.151,14.748,102.498,14.061,102.498,13.179z M105.26,13.194c0-0.72-0.505-1.273-1.225-1.273
				c-0.704,0-1.21,0.522-1.21,1.273c0,0.704,0.506,1.26,1.241,1.26C104.785,14.454,105.26,13.914,105.26,13.194z M103.771,13.933
				c0,0.016,0,0.031-0.03,0.031h-0.245c-0.033,0-0.05-0.016-0.05-0.031v-1.521c0-0.016,0.017-0.033,0.05-0.033
				c0.015,0,0.294,0,0.489,0c0.441,0,0.67,0.164,0.67,0.474c0,0.229-0.131,0.361-0.359,0.427c0.082,0.112,0.393,0.489,0.489,0.636
				c0.019,0.034,0.019,0.05-0.015,0.05h-0.294c-0.034,0-0.05,0-0.065-0.031c-0.082-0.101-0.229-0.313-0.394-0.524
				c-0.016-0.032-0.032-0.05-0.064-0.05h-0.182V13.933z M103.771,13.113h0.197c0.278,0,0.36-0.097,0.36-0.229
				c0-0.148-0.099-0.244-0.36-0.244c-0.049,0-0.179,0-0.197,0V13.113z"/>
			<path fill="#FFFFFF" d="M116.623,22.138c-0.082,0-0.113-0.016-0.113-0.098v-4.742h-4.988v4.727c0,0.081-0.033,0.113-0.098,0.113
				h-1.145c-0.082,0-0.113-0.032-0.113-0.113V11.626c0-0.082,0.031-0.098,0.113-0.098h1.145c0.064,0,0.098,0.016,0.098,0.098v4.545
				h4.988v-4.545c0-0.064,0.031-0.098,0.096-0.098h1.178c0.051,0,0.082,0.033,0.082,0.098v10.398c0,0.098-0.031,0.113-0.1,0.113
				H116.623z"/>
			<path fill="#FFFFFF" d="M126.203,20.453c0,0.77,0.053,1.26,0.1,1.587c0,0.082-0.018,0.098-0.1,0.098h-1.027
				c-0.082,0-0.098-0.016-0.133-0.082c-0.047-0.179-0.064-0.475-0.082-0.669c-0.719,0.669-1.486,0.898-2.303,0.898
				c-1.193,0-2.484-0.556-2.484-2.844v-5.068c0-0.082,0.031-0.116,0.096-0.116h1.16c0.082,0,0.1,0.034,0.1,0.1v4.889
				c0,1.224,0.475,1.914,1.521,1.914c0.686,0,1.307-0.264,1.812-0.819v-5.967c0-0.082,0.035-0.116,0.115-0.116h1.145
				c0.066,0,0.08,0.034,0.08,0.1V20.453z"/>
			<path fill="#FFFFFF" d="M129.705,10.58c0.082,0,0.1,0.015,0.1,0.097v3.875c0.588-0.277,1.225-0.441,1.912-0.441
				c2.059,0,3.285,1.57,3.285,3.711c0,2.829-2.041,4.464-4.299,4.464c-0.785,0-1.424-0.1-2.156-0.327
				c-0.068-0.033-0.1-0.081-0.1-0.146V10.677c0-0.063,0.031-0.097,0.1-0.097H129.705z M131.375,15.24
				c-0.574,0-1.08,0.096-1.57,0.377v5.458c0.326,0.097,0.652,0.132,1.061,0.132c1.342,0,2.779-1.062,2.779-3.254
				C133.645,16.203,132.746,15.24,131.375,15.24z"/>
		</g>
		<g>
			<g>
				<path fill="#333333" d="M62.664,17.962l-1.128,3.367c-0.018,0.082-0.05,0.098-0.115,0.098h-1.128
					c-0.081,0-0.114-0.032-0.081-0.132c0.85-2.5,2.354-6.897,3.319-9.726c0.048-0.132,0.08-0.245,0.098-0.671
					c0-0.048,0.032-0.081,0.081-0.081h1.586c0.049,0,0.065,0.016,0.099,0.081c1.16,3.318,2.402,7.031,3.58,10.415
					c0.016,0.081,0,0.113-0.082,0.113h-1.21c-0.065,0-0.098-0.032-0.131-0.082l-1.16-3.383H62.664z M66.08,16.834
					c-0.326-1.096-1.258-3.777-1.553-4.904H64.51c-0.245,1.062-0.947,3.105-1.521,4.904H66.08z"/>
				<path fill="#333333" d="M70.121,17.554c0-2.404,1.683-4.154,4.135-4.154c0.393,0,0.77,0.033,1.079,0.146v-3.58
					c0-0.063,0.033-0.097,0.099-0.097h1.178c0.065,0,0.081,0.033,0.081,0.097v9.958c0,0.245,0.017,0.556,0.033,0.768
					c0,0.064,0,0.1-0.065,0.131c-0.867,0.507-1.848,0.752-2.78,0.752C71.657,21.574,70.121,20.219,70.121,17.554z M75.334,14.69
					c-0.277-0.146-0.687-0.213-1.128-0.213c-1.7,0-2.697,1.243-2.697,3.01c0,2.175,1.228,2.974,2.518,2.974
					c0.523,0,0.98-0.064,1.308-0.194V14.69z"/>
				<path fill="#333333" d="M85.653,17.472c0,2.533-1.39,4.103-3.53,4.103c-2.567,0-3.564-2.109-3.564-4.087
					c0-2.386,1.39-4.088,3.579-4.088C84.329,13.399,85.653,15.051,85.653,17.472z M79.931,17.453c0,1.733,0.753,3.091,2.224,3.091
					c1.095,0,2.125-0.834,2.125-3.024c0-1.667-0.621-3.074-2.208-3.074C80.797,14.445,79.931,15.558,79.931,17.453z"/>
				<path fill="#333333" d="M88.761,9.869c0.081,0,0.099,0.015,0.099,0.097v3.875c0.587-0.277,1.226-0.441,1.911-0.441
					c2.06,0,3.286,1.57,3.286,3.711c0,2.829-2.043,4.464-4.3,4.464c-0.784,0-1.421-0.1-2.157-0.327
					c-0.065-0.033-0.099-0.081-0.099-0.146V9.966c0-0.063,0.033-0.097,0.099-0.097H88.761z M90.428,14.529
					c-0.571,0-1.079,0.096-1.568,0.377v5.458c0.325,0.097,0.652,0.132,1.062,0.132c1.339,0,2.778-1.062,2.778-3.254
					C92.701,15.492,91.801,14.529,90.428,14.529z"/>
				<path fill="#333333" d="M96.938,17.618c-0.032,1.65,0.834,2.83,2.534,2.83c0.587,0,1.226-0.1,1.881-0.411
					c0.049-0.016,0.08-0.016,0.08,0.065v0.899c0,0.082-0.016,0.13-0.08,0.147c-0.54,0.293-1.212,0.425-2.126,0.425
					c-2.664,0.016-3.662-1.962-3.662-4.038c0-2.371,1.274-4.137,3.417-4.137c2.174,0,2.991,1.799,2.991,3.139
					c0,0.591-0.064,0.934-0.131,0.965c-0.229,0.098-0.866,0.115-1.732,0.115H96.938z M99.8,16.669c0.734,0,0.865-0.031,0.882-0.099
					c0-0.048,0-0.18,0-0.277c0-0.555-0.343-1.881-1.767-1.881c-1.209,0-1.83,1.014-1.96,2.257H99.8z"/>
				<path fill="#333333" d="M102.498,12.468c0-0.851,0.653-1.535,1.554-1.535c0.882,0,1.534,0.685,1.534,1.535
					c0,0.882-0.668,1.569-1.534,1.569C103.151,14.037,102.498,13.35,102.498,12.468z M105.26,12.483c0-0.72-0.505-1.273-1.225-1.273
					c-0.704,0-1.21,0.522-1.21,1.273c0,0.704,0.506,1.26,1.241,1.26C104.785,13.743,105.26,13.203,105.26,12.483z M103.771,13.222
					c0,0.016,0,0.031-0.03,0.031h-0.245c-0.033,0-0.05-0.016-0.05-0.031V11.7c0-0.016,0.017-0.033,0.05-0.033
					c0.015,0,0.294,0,0.489,0c0.441,0,0.67,0.164,0.67,0.474c0,0.229-0.131,0.361-0.359,0.427c0.082,0.112,0.393,0.489,0.489,0.636
					c0.019,0.034,0.019,0.05-0.015,0.05h-0.294c-0.034,0-0.05,0-0.065-0.031c-0.082-0.101-0.229-0.313-0.394-0.524
					c-0.016-0.032-0.032-0.05-0.064-0.05h-0.182V13.222z M103.771,12.402h0.197c0.278,0,0.36-0.097,0.36-0.229
					c0-0.148-0.099-0.244-0.36-0.244c-0.049,0-0.179,0-0.197,0V12.402z"/>
				<path fill="#333333" d="M116.623,21.427c-0.082,0-0.113-0.016-0.113-0.098v-4.742h-4.988v4.727c0,0.081-0.033,0.113-0.098,0.113
					h-1.145c-0.082,0-0.113-0.032-0.113-0.113V10.915c0-0.082,0.031-0.098,0.113-0.098h1.145c0.064,0,0.098,0.016,0.098,0.098v4.545
					h4.988v-4.545c0-0.064,0.031-0.098,0.096-0.098h1.178c0.051,0,0.082,0.033,0.082,0.098v10.398c0,0.098-0.031,0.113-0.1,0.113
					H116.623z"/>
				<path fill="#333333" d="M126.203,19.742c0,0.77,0.053,1.26,0.1,1.587c0,0.082-0.018,0.098-0.1,0.098h-1.027
					c-0.082,0-0.098-0.016-0.133-0.082c-0.047-0.179-0.064-0.475-0.082-0.669c-0.719,0.669-1.486,0.898-2.303,0.898
					c-1.193,0-2.484-0.556-2.484-2.844v-5.068c0-0.082,0.031-0.116,0.096-0.116h1.16c0.082,0,0.1,0.034,0.1,0.1v4.889
					c0,1.224,0.475,1.914,1.521,1.914c0.686,0,1.307-0.264,1.812-0.819v-5.967c0-0.082,0.035-0.116,0.115-0.116h1.145
					c0.066,0,0.08,0.034,0.08,0.1V19.742z"/>
				<path fill="#333333" d="M129.705,9.869c0.082,0,0.1,0.015,0.1,0.097v3.875c0.588-0.277,1.225-0.441,1.912-0.441
					c2.059,0,3.285,1.57,3.285,3.711c0,2.829-2.041,4.464-4.299,4.464c-0.785,0-1.424-0.1-2.156-0.327
					c-0.068-0.033-0.1-0.081-0.1-0.146V9.966c0-0.063,0.031-0.097,0.1-0.097H129.705z M131.375,14.529
					c-0.574,0-1.08,0.096-1.57,0.377v5.458c0.326,0.097,0.652,0.132,1.061,0.132c1.342,0,2.779-1.062,2.779-3.254
					C133.645,15.492,132.746,14.529,131.375,14.529z"/>
			</g>
		</g>
	</g>
</g>
<path fill="#CBCBCB" d="M200.114,43.029h-1v-1h1V43.029z M197.114,43.029h-1v-1h1V43.029z M194.114,43.029h-1v-1h1V43.029z
	 M191.114,43.029h-1v-1h1V43.029z M188.114,43.029h-1v-1h1V43.029z M185.114,43.029h-1v-1h1V43.029z M182.114,43.029h-1v-1h1V43.029
	z M179.114,43.029h-1v-1h1V43.029z M176.114,43.029h-1v-1h1V43.029z M173.114,43.029h-1v-1h1V43.029z M170.114,43.029h-1v-1h1
	V43.029z M167.114,43.029h-1v-1h1V43.029z M164.114,43.029h-1v-1h1V43.029z M161.114,43.029h-1v-1h1V43.029z M158.114,43.029h-1v-1
	h1V43.029z M155.114,43.029h-1v-1h1V43.029z M152.114,43.029h-1v-1h1V43.029z M149.114,43.029h-1v-1h1V43.029z M146.114,43.029h-1
	v-1h1V43.029z M143.114,43.029h-1v-1h1V43.029z M140.114,43.029h-1v-1h1V43.029z M137.114,43.029h-1v-1h1V43.029z M134.114,43.029
	h-1v-1h1V43.029z M131.114,43.029h-1v-1h1V43.029z M128.114,43.029h-1v-1h1V43.029z M125.114,43.029h-1v-1h1V43.029z
	 M122.114,43.029h-1v-1h1V43.029z M119.114,43.029h-1v-1h1V43.029z M116.114,43.029h-1v-1h1V43.029z M113.114,43.029h-1v-1h1V43.029
	z M110.114,43.029h-1v-1h1V43.029z M107.114,43.029h-1v-1h1V43.029z M104.114,43.029h-1v-1h1V43.029z M101.114,43.029h-1v-1h1
	V43.029z M98.114,43.029h-1v-1h1V43.029z M95.114,43.029h-1v-1h1V43.029z M92.114,43.029h-1v-1h1V43.029z M89.114,43.029h-1v-1h1
	V43.029z M86.114,43.029h-1v-1h1V43.029z M83.114,43.029h-1v-1h1V43.029z M80.114,43.029h-1v-1h1V43.029z M77.114,43.029h-1v-1h1
	V43.029z M74.114,43.029h-1v-1h1V43.029z M71.114,43.029h-1v-1h1V43.029z M68.114,43.029h-1v-1h1V43.029z M65.114,43.029h-1v-1h1
	V43.029z M62.114,43.029h-1v-1h1V43.029z M59.114,43.029h-1v-1h1V43.029z M56.114,43.029h-1v-1h1V43.029z M53.114,43.029h-1v-1h1
	V43.029z M50.114,43.029h-1v-1h1V43.029z M47.114,43.029h-1v-1h1V43.029z M44.114,43.029h-1v-1h1V43.029z M41.114,43.029h-1v-1h1
	V43.029z M38.114,43.029h-1v-1h1V43.029z M35.114,43.029h-1v-1h1V43.029z M32.114,43.029h-1v-1h1V43.029z M29.114,43.029h-1v-1h1
	V43.029z M26.114,43.029h-1v-1h1V43.029z M23.114,43.029h-1v-1h1V43.029z"/>
<g>
	<path fill="#333333" d="M28.951,50.256c0.376,0.697,0.448,1.591,0.215,2.68c-0.25,1.178-0.757,2.157-1.52,2.938
		c-0.899,0.917-1.998,1.375-3.298,1.375c-1.214,0-2.082-0.4-2.605-1.203c-0.455-0.773-0.557-1.75-0.306-2.932
		c0.226-1.067,0.684-1.98,1.375-2.74c0.888-0.974,1.998-1.461,3.33-1.461C27.535,48.912,28.471,49.36,28.951,50.256z M28.064,52.951
		c0.197-0.927,0.114-1.674-0.25-2.239c-0.363-0.565-0.966-0.849-1.807-0.849c-0.816,0-1.542,0.28-2.178,0.841
		c-0.635,0.561-1.069,1.387-1.302,2.479c-0.186,0.874-0.122,1.61,0.193,2.21s0.969,0.9,1.96,0.9c0.942,0,1.694-0.338,2.259-1.013
		C27.503,54.605,27.878,53.829,28.064,52.951z"/>
	<path fill="#333333" d="M31.708,51.266l-0.811,3.818c-0.061,0.294-0.064,0.533-0.011,0.72c0.097,0.344,0.379,0.516,0.849,0.516
		c0.673,0,1.196-0.301,1.568-0.902c0.201-0.322,0.36-0.765,0.478-1.327l0.602-2.824h0.967l-1.219,5.752h-0.913l0.188-0.849
		c-0.172,0.219-0.367,0.403-0.585,0.554c-0.433,0.301-0.913,0.451-1.439,0.451c-0.82,0-1.319-0.274-1.499-0.822
		c-0.1-0.294-0.099-0.686,0.005-1.176l0.833-3.91H31.708z"/>
	<path fill="#333333" d="M36.962,51.266h0.918l-0.209,0.993c0.115-0.193,0.348-0.429,0.701-0.706
		c0.353-0.277,0.72-0.416,1.104-0.416c0.018,0,0.048,0.001,0.091,0.005s0.115,0.011,0.215,0.021l-0.215,1.021
		c-0.057-0.011-0.109-0.018-0.156-0.021s-0.099-0.006-0.156-0.006c-0.487,0-0.894,0.157-1.222,0.471
		c-0.327,0.313-0.536,0.674-0.625,1.082l-0.698,3.309h-0.967L36.962,51.266z"/>
	<path fill="#333333" d="M42.993,52.307l0.231-1.09h0.816l0.349-1.633h1.515l-0.349,1.633h0.951l-0.231,1.09h-0.951L44.663,55.4
		c-0.05,0.24-0.051,0.39-0.003,0.449c0.049,0.059,0.229,0.088,0.54,0.088c0.046,0,0.096,0,0.147-0.002
		c0.052-0.002,0.105-0.005,0.159-0.008l-0.247,1.144l-0.73,0.026c-0.727,0.025-1.194-0.1-1.402-0.375
		c-0.132-0.176-0.161-0.446-0.086-0.812l0.768-3.604H42.993z"/>
	<path fill="#333333" d="M48.919,57.222c-1.006,0-1.691-0.306-2.055-0.916c-0.363-0.61-0.454-1.345-0.271-2.204
		c0.179-0.846,0.582-1.578,1.208-2.197s1.443-0.93,2.449-0.93s1.69,0.311,2.052,0.93s0.453,1.352,0.274,2.197
		c-0.183,0.859-0.586,1.594-1.211,2.204C50.741,56.916,49.925,57.222,48.919,57.222z M50.971,54.102
		c0.125-0.588,0.101-1.04-0.072-1.356c-0.174-0.317-0.484-0.476-0.932-0.476s-0.825,0.158-1.133,0.476
		c-0.308,0.316-0.524,0.769-0.65,1.356c-0.125,0.587-0.101,1.04,0.073,1.358c0.173,0.318,0.484,0.478,0.932,0.478
		s0.825-0.159,1.133-0.478S50.845,54.688,50.971,54.102z"/>
	<path fill="#333333" d="M55.715,57.222c-1.006,0-1.691-0.306-2.055-0.916c-0.363-0.61-0.454-1.345-0.271-2.204
		c0.179-0.846,0.582-1.578,1.208-2.197s1.443-0.93,2.449-0.93s1.69,0.311,2.052,0.93s0.453,1.352,0.274,2.197
		c-0.183,0.859-0.586,1.594-1.211,2.204C57.537,56.916,56.721,57.222,55.715,57.222z M57.767,54.102
		c0.125-0.588,0.101-1.04-0.072-1.356c-0.174-0.317-0.484-0.476-0.932-0.476s-0.825,0.158-1.133,0.476
		c-0.308,0.316-0.524,0.769-0.65,1.356c-0.125,0.587-0.101,1.04,0.073,1.358c0.173,0.318,0.484,0.478,0.932,0.478
		s0.825-0.159,1.133-0.478S57.641,54.688,57.767,54.102z"/>
	<path fill="#333333" d="M61.491,57.018H59.96l1.681-7.917h1.531L61.491,57.018z"/>
	<path fill="#333333" d="M64.646,55.148c-0.025,0.272,0.005,0.466,0.091,0.58c0.143,0.204,0.471,0.307,0.983,0.307
		c0.301,0,0.55-0.045,0.747-0.135s0.315-0.224,0.354-0.402c0.036-0.172-0.009-0.303-0.134-0.393s-0.625-0.243-1.499-0.462
		c-0.626-0.165-1.049-0.37-1.268-0.618c-0.222-0.243-0.283-0.594-0.183-1.053c0.115-0.54,0.425-1.005,0.932-1.394
		c0.506-0.389,1.145-0.583,1.915-0.583c0.73,0,1.294,0.146,1.692,0.438s0.555,0.796,0.473,1.512h-1.531
		c0.018-0.197-0.005-0.353-0.07-0.468c-0.125-0.207-0.39-0.311-0.795-0.311c-0.333,0-0.581,0.052-0.744,0.155
		c-0.163,0.104-0.258,0.226-0.287,0.365c-0.04,0.176,0.009,0.303,0.145,0.382c0.132,0.082,0.634,0.224,1.504,0.424
		c0.577,0.144,0.986,0.359,1.23,0.65c0.24,0.293,0.313,0.66,0.22,1.101c-0.125,0.58-0.442,1.054-0.951,1.421
		s-1.214,0.551-2.116,0.551c-0.92,0-1.559-0.194-1.915-0.583c-0.356-0.389-0.472-0.884-0.346-1.485H64.646z"/>
	<path fill="#333333" d="M69.728,55.847h1.123l-0.247,1.171h-1.123L69.728,55.847z"/>
	<path fill="#333333" d="M76.515,49.127h1.246l1.461,3.793l3.072-3.793h1.251l-3.985,4.711l-0.671,3.18H77.82l0.671-3.18
		L76.515,49.127z"/>
	<path fill="#333333" d="M87.329,54.021c-0.197,0.928-0.585,1.693-1.166,2.299s-1.345,0.907-2.293,0.907
		c-0.792,0-1.362-0.268-1.713-0.803s-0.432-1.254-0.242-2.156c0.208-0.967,0.618-1.736,1.23-2.31s1.332-0.859,2.159-0.859
		c0.741,0,1.315,0.247,1.722,0.741C87.432,52.334,87.533,53.061,87.329,54.021z M86.314,54.047c0.115-0.537,0.122-0.974,0.021-1.311
		c-0.161-0.529-0.575-0.795-1.241-0.795c-0.591,0-1.068,0.227-1.431,0.678c-0.364,0.451-0.613,0.995-0.75,1.633
		c-0.129,0.611-0.103,1.122,0.078,1.53c0.181,0.408,0.563,0.612,1.147,0.612c0.641,0,1.132-0.242,1.474-0.728
		C85.955,55.182,86.188,54.642,86.314,54.047z"/>
	<path fill="#333333" d="M90.108,51.266l-0.811,3.818c-0.061,0.294-0.064,0.533-0.011,0.72c0.097,0.344,0.379,0.516,0.849,0.516
		c0.673,0,1.196-0.301,1.568-0.902c0.201-0.322,0.36-0.765,0.478-1.327l0.601-2.824h0.968l-1.22,5.752h-0.913l0.188-0.849
		c-0.172,0.219-0.367,0.403-0.585,0.554c-0.433,0.301-0.913,0.451-1.439,0.451c-0.82,0-1.319-0.274-1.499-0.822
		c-0.1-0.294-0.099-0.686,0.005-1.176l0.833-3.91H90.108z"/>
	<path fill="#333333" d="M95.362,51.266h0.918l-0.209,0.993c0.114-0.193,0.349-0.429,0.701-0.706s0.721-0.416,1.104-0.416
		c0.018,0,0.049,0.001,0.092,0.005s0.114,0.011,0.215,0.021l-0.215,1.021c-0.058-0.011-0.109-0.018-0.156-0.021
		s-0.099-0.006-0.156-0.006c-0.486,0-0.894,0.157-1.222,0.471c-0.327,0.313-0.536,0.674-0.626,1.082l-0.697,3.309h-0.967
		L95.362,51.266z"/>
	<path fill="#333333" d="M104.997,51.163h1.552l-0.005,4.216l1.81-4.216h1.596l-2.938,5.854h-1.574l-0.016-4.265l-1.832,4.265H102
		l-0.402-5.854h1.643l0.021,4.2L104.997,51.163z"/>
	<path fill="#333333" d="M112.212,57.222c-1.006,0-1.691-0.306-2.055-0.916s-0.454-1.345-0.271-2.204
		c0.179-0.846,0.581-1.578,1.208-2.197s1.443-0.93,2.449-0.93s1.69,0.311,2.052,0.93s0.453,1.352,0.273,2.197
		c-0.182,0.859-0.586,1.594-1.211,2.204S113.218,57.222,112.212,57.222z M114.264,54.102c0.125-0.588,0.102-1.04-0.072-1.356
		c-0.174-0.317-0.484-0.476-0.932-0.476c-0.448,0-0.826,0.158-1.134,0.476c-0.308,0.316-0.524,0.769-0.649,1.356
		c-0.126,0.587-0.102,1.04,0.072,1.358s0.484,0.478,0.932,0.478s0.825-0.159,1.133-0.478
		C113.922,55.142,114.139,54.688,114.264,54.102z"/>
	<path fill="#333333" d="M121.075,51.034l-0.332,1.568c-0.094-0.011-0.178-0.018-0.253-0.021s-0.136-0.005-0.183-0.005
		c-0.616,0-1.072,0.2-1.369,0.602c-0.165,0.225-0.298,0.572-0.398,1.041l-0.59,2.799h-1.542l1.241-5.854h1.461l-0.215,1.021
		c0.318-0.391,0.58-0.657,0.783-0.801c0.341-0.239,0.74-0.359,1.198-0.359c0.028,0,0.053,0.001,0.072,0.003
		S121.011,51.03,121.075,51.034z"/>
	<path fill="#333333" d="M122.442,49.127h1.504l-0.907,4.266l2.373-2.203h1.896l-2.524,2.24l1.37,3.588h-1.848l-0.871-2.503
		l-0.778,0.661l-0.387,1.842h-1.504L122.442,49.127z"/>
	<path fill="#333333" d="M127.45,55.847h1.122l-0.247,1.171h-1.123L127.45,55.847z"/>
	<path fill="#333333" d="M135.017,49.127h1.531l0.849,6.672l3.669-6.672h1.514l-1.676,7.891h-1.015l0.988-4.656
		c0.032-0.162,0.092-0.429,0.18-0.801s0.177-0.771,0.267-1.197l-3.664,6.654h-1.058l-0.854-6.654l-0.053,0.241
		c-0.04,0.193-0.098,0.488-0.172,0.884c-0.076,0.396-0.133,0.687-0.172,0.873l-0.988,4.656h-1.021L135.017,49.127z"/>
	<path fill="#333333" d="M146.298,53.531c0.229-0.028,0.399-0.121,0.511-0.279c0.061-0.086,0.107-0.209,0.14-0.37
		c0.071-0.329,0.006-0.568-0.199-0.717c-0.203-0.148-0.524-0.224-0.961-0.224c-0.505,0-0.892,0.137-1.16,0.408
		c-0.15,0.15-0.273,0.375-0.371,0.672h-0.902c0.169-0.709,0.504-1.202,1.005-1.479s1.044-0.417,1.628-0.417
		c0.676,0,1.197,0.129,1.562,0.387s0.49,0.659,0.376,1.203l-0.704,3.314c-0.021,0.101-0.019,0.181,0.009,0.242
		c0.026,0.061,0.106,0.091,0.239,0.091c0.043,0,0.092-0.003,0.147-0.008c0.056-0.006,0.115-0.014,0.18-0.024l-0.155,0.715
		c-0.158,0.043-0.277,0.069-0.357,0.08c-0.081,0.011-0.189,0.016-0.325,0.016c-0.333,0-0.55-0.117-0.649-0.354
		c-0.055-0.126-0.072-0.303-0.055-0.532c-0.254,0.258-0.585,0.481-0.993,0.671c-0.408,0.19-0.834,0.285-1.278,0.285
		c-0.533,0-0.936-0.162-1.206-0.486s-0.354-0.729-0.249-1.217c0.114-0.533,0.369-0.946,0.765-1.24s0.871-0.475,1.427-0.543
		L146.298,53.531z M144.381,56.389c0.34,0,0.688-0.078,1.042-0.236c0.591-0.261,0.951-0.688,1.08-1.283l0.16-0.779
		c-0.132,0.076-0.297,0.139-0.494,0.188c-0.196,0.05-0.387,0.086-0.568,0.107l-0.602,0.075c-0.362,0.047-0.642,0.12-0.838,0.221
		c-0.334,0.168-0.539,0.437-0.618,0.805c-0.061,0.279-0.006,0.5,0.164,0.661S144.102,56.389,144.381,56.389z"/>
	<path fill="#333333" d="M153.029,51.442c0.15,0.107,0.307,0.296,0.468,0.563l0.618-2.905h0.929l-1.681,7.917h-0.871l0.167-0.801
		c-0.301,0.355-0.622,0.611-0.964,0.769s-0.712,0.236-1.109,0.236c-0.641,0-1.139-0.27-1.493-0.809s-0.435-1.256-0.241-2.151
		c0.175-0.838,0.542-1.563,1.101-2.178s1.235-0.921,2.03-0.921C152.423,51.163,152.771,51.256,153.029,51.442z M151.069,56.379
		c0.447,0,0.855-0.193,1.225-0.578s0.63-0.938,0.784-1.656c0.154-0.728,0.12-1.266-0.102-1.614c-0.223-0.35-0.552-0.524-0.988-0.524
		c-0.487,0-0.922,0.187-1.303,0.559c-0.382,0.373-0.649,0.921-0.803,1.645c-0.133,0.615-0.112,1.131,0.062,1.547
		C150.118,56.171,150.493,56.379,151.069,56.379z"/>
	<path fill="#333333" d="M160.353,52.168c0.132,0.289,0.189,0.628,0.172,1.015c0.003,0.265-0.058,0.688-0.184,1.268h-4.216
		c-0.107,0.584-0.069,1.052,0.115,1.404s0.547,0.529,1.088,0.529c0.505,0,0.941-0.167,1.311-0.499
		c0.215-0.193,0.385-0.418,0.511-0.672h0.95c-0.071,0.211-0.205,0.446-0.4,0.706s-0.398,0.472-0.609,0.637
		c-0.354,0.286-0.759,0.479-1.214,0.58c-0.247,0.058-0.518,0.086-0.811,0.086c-0.717,0-1.268-0.261-1.654-0.781
		c-0.387-0.521-0.48-1.251-0.279-2.188c0.196-0.924,0.606-1.675,1.229-2.251s1.339-0.864,2.148-0.864
		c0.408,0,0.784,0.096,1.128,0.287S160.22,51.863,160.353,52.168z M159.509,53.682c0.05-0.418,0.03-0.753-0.059-1.004
		c-0.165-0.466-0.558-0.698-1.177-0.698c-0.444,0-0.851,0.16-1.22,0.48c-0.368,0.32-0.615,0.728-0.74,1.222H159.509z"/>
	<path fill="#333333" d="M165.785,55.148c-0.025,0.272,0.006,0.466,0.092,0.58c0.143,0.204,0.471,0.307,0.982,0.307
		c0.301,0,0.55-0.045,0.746-0.135c0.197-0.09,0.315-0.224,0.355-0.402c0.035-0.172-0.01-0.303-0.135-0.393s-0.625-0.243-1.498-0.462
		c-0.627-0.165-1.05-0.37-1.268-0.618c-0.223-0.243-0.283-0.594-0.184-1.053c0.115-0.54,0.426-1.005,0.933-1.394
		s1.145-0.583,1.915-0.583c0.73,0,1.294,0.146,1.691,0.438s0.555,0.796,0.473,1.512h-1.531c0.019-0.197-0.005-0.353-0.069-0.468
		c-0.125-0.207-0.391-0.311-0.795-0.311c-0.333,0-0.581,0.052-0.744,0.155s-0.259,0.226-0.287,0.365
		c-0.039,0.176,0.009,0.303,0.146,0.382c0.132,0.082,0.633,0.224,1.504,0.424c0.576,0.144,0.986,0.359,1.229,0.65
		c0.24,0.293,0.313,0.66,0.22,1.101c-0.125,0.58-0.441,1.054-0.95,1.421s-1.214,0.551-2.116,0.551c-0.92,0-1.559-0.194-1.915-0.583
		s-0.472-0.884-0.347-1.485H165.785z"/>
	<path fill="#333333" d="M171.658,51.163h1.553l-1.241,5.854h-1.552L171.658,51.163z M173.361,50.465h-1.553l0.301-1.412h1.553
		L173.361,50.465z"/>
	<path fill="#333333" d="M182.645,51.711c0.118,0.204,0.176,0.455,0.172,0.752c-0.007,0.197-0.05,0.485-0.129,0.865l-0.795,3.689
		h-1.568l0.79-3.728c0.046-0.222,0.05-0.404,0.01-0.548c-0.078-0.272-0.301-0.408-0.666-0.408c-0.422,0-0.752,0.176-0.988,0.526
		c-0.121,0.187-0.211,0.41-0.268,0.671l-0.736,3.486h-1.541l0.735-3.486c0.075-0.347,0.093-0.6,0.054-0.757
		c-0.068-0.283-0.29-0.425-0.666-0.425c-0.437,0-0.761,0.142-0.973,0.425c-0.114,0.161-0.205,0.401-0.273,0.72l-0.746,3.523h-1.553
		l1.24-5.844h1.488l-0.183,0.854c0.254-0.304,0.479-0.521,0.677-0.649c0.344-0.229,0.752-0.344,1.225-0.344
		c0.447,0,0.789,0.099,1.025,0.296c0.184,0.182,0.301,0.417,0.355,0.703c0.271-0.344,0.574-0.596,0.907-0.758
		c0.348-0.16,0.714-0.241,1.101-0.241c0.258,0,0.502,0.05,0.73,0.15C182.299,51.285,182.49,51.46,182.645,51.711z"/>
	<path fill="#333333" d="M189.635,54.016c-0.219,1.031-0.617,1.816-1.195,2.357s-1.232,0.811-1.963,0.811
		c-0.466,0-0.827-0.116-1.085-0.349c-0.144-0.129-0.269-0.317-0.376-0.563l-0.65,3.051h-1.514l1.734-8.159h1.467l-0.184,0.864
		c0.219-0.254,0.438-0.454,0.656-0.602c0.394-0.261,0.825-0.392,1.294-0.392c0.684,0,1.209,0.253,1.576,0.757
		C189.763,52.297,189.843,53.037,189.635,54.016z M187.094,52.371c-0.555,0-0.991,0.264-1.311,0.79
		c-0.164,0.279-0.293,0.634-0.387,1.063c-0.143,0.681-0.064,1.158,0.236,1.434c0.184,0.162,0.421,0.242,0.715,0.242
		c0.426,0,0.786-0.165,1.08-0.494c0.293-0.329,0.497-0.768,0.611-1.316c0.098-0.451,0.079-0.85-0.053-1.197
		C187.854,52.545,187.557,52.371,187.094,52.371z"/>
	<path fill="#333333" d="M191.746,57.018h-1.531l1.682-7.917h1.531L191.746,57.018z"/>
	<path fill="#333333" d="M198.94,52.146c0.157,0.347,0.221,0.75,0.188,1.208c-0.014,0.269-0.078,0.655-0.193,1.16h-4.006
		c-0.104,0.587-0.008,0.999,0.289,1.235c0.18,0.146,0.418,0.221,0.715,0.221c0.315,0,0.591-0.09,0.827-0.27
		c0.125-0.096,0.249-0.23,0.37-0.402h1.563c-0.114,0.348-0.37,0.7-0.769,1.059c-0.623,0.568-1.385,0.854-2.287,0.854
		c-0.745,0-1.352-0.24-1.818-0.72c-0.468-0.479-0.587-1.261-0.357-2.342c0.215-1.014,0.637-1.79,1.265-2.331
		c0.629-0.541,1.353-0.811,2.173-0.811c0.487,0,0.907,0.091,1.26,0.273S198.772,51.752,198.94,52.146z M195.181,53.505h2.379
		c0.062-0.404,0.003-0.712-0.174-0.921c-0.178-0.21-0.429-0.314-0.755-0.314c-0.354,0-0.652,0.111-0.895,0.333
		C195.495,52.824,195.31,53.125,195.181,53.505z"/>
	<path fill="#333333" d="M199.983,55.847h1.122l-0.247,1.171h-1.123L199.983,55.847z"/>
</g>
</svg>
