<?xml version="1.0" encoding="utf-8"?>
<!-- Generator: Adobe Illustrator 16.0.4, SVG Export Plug-In . SVG Version: 6.00 Build 0)  -->
<!DOCTYPE svg PUBLIC "-//W3C//DTD SVG 1.1//EN" "http://www.w3.org/Graphics/SVG/1.1/DTD/svg11.dtd">
<svg version="1.1" id="Layer_1" xmlns="http://www.w3.org/2000/svg" xmlns:xlink="http://www.w3.org/1999/xlink" x="0px" y="0px"
	 width="30px" height="50px" viewBox="0 0 30 50" enable-background="new 0 0 30 50" xml:space="preserve">
<g>
	<rect fill="#FF0000" width="29.84" height="50"/>
	<g>
		<polygon fill="#FFFFFF" points="16.953,21.562 22.701,21.562 22.701,35.277 		"/>
		<polygon fill="#FFFFFF" points="12.901,21.562 7.146,21.562 7.146,35.277 		"/>
		<polygon fill="#FFFFFF" points="14.926,26.616 18.59,35.276 16.189,35.276 15.092,32.518 12.41,32.518 		"/>
		<g>
			<path fill="#FFFFFF" d="M23.877,21.562c0.367,0,0.662,0.296,0.662,0.666c0,0.375-0.295,0.672-0.666,0.672
				s-0.672-0.297-0.672-0.672c0-0.37,0.301-0.666,0.672-0.666H23.877z M23.873,21.676c-0.293,0-0.531,0.248-0.531,0.555
				c0,0.309,0.238,0.556,0.535,0.556c0.293,0.003,0.529-0.248,0.529-0.556c0-0.307-0.236-0.555-0.529-0.555H23.873z M23.752,22.618
				h-0.135v-0.742c0.062-0.011,0.125-0.022,0.225-0.022c0.117,0,0.193,0.023,0.242,0.062c0.041,0.03,0.062,0.083,0.062,0.152
				c0,0.096-0.062,0.159-0.143,0.179v0.007c0.064,0.012,0.105,0.07,0.121,0.18c0.02,0.117,0.033,0.162,0.045,0.184h-0.135
				c-0.02-0.022-0.033-0.091-0.049-0.19c-0.016-0.088-0.064-0.125-0.156-0.125h-0.078V22.618z M23.752,22.2h0.08
				c0.098,0,0.178-0.032,0.178-0.119c0-0.066-0.047-0.125-0.17-0.125c-0.041,0-0.068,0-0.088,0.002V22.2z"/>
		</g>
		<path fill="#FFFFFF" d="M9.235,41.01l-0.182-1.075C9,39.623,8.935,39.139,8.887,38.804H8.869
			c-0.055,0.337-0.129,0.836-0.184,1.133L8.488,41.01H9.235z M8.39,41.713l-0.236,1.193H7.276l1.093-4.969h1.073l0.992,4.969H9.553
			l-0.231-1.193H8.39z"/>
		<path fill="#FFFFFF" d="M12.426,40.687c0-0.065,0-0.144-0.013-0.215c-0.034-0.244-0.167-0.467-0.377-0.467
			c-0.357,0-0.491,0.52-0.491,1.125c0,0.699,0.19,1.098,0.479,1.098c0.135,0,0.289-0.069,0.373-0.362
			c0.019-0.057,0.03-0.137,0.03-0.229V40.687z M13.327,37.805v4.071c0,0.325,0.016,0.72,0.029,1.03h-0.778l-0.051-0.414h-0.019
			c-0.13,0.255-0.414,0.475-0.751,0.475c-0.744,0-1.113-0.819-1.113-1.852c0-1.258,0.552-1.868,1.148-1.868
			c0.312,0,0.517,0.151,0.618,0.372h0.015v-1.814H13.327z"/>
		<path fill="#FFFFFF" d="M15.197,42.278c0.342,0,0.429-0.644,0.429-1.179c0-0.507-0.087-1.167-0.444-1.167
			c-0.38,0-0.46,0.66-0.46,1.167c0,0.613,0.102,1.179,0.467,1.179H15.197z M15.18,42.967c-0.825,0-1.347-0.665-1.347-1.852
			c0-1.295,0.668-1.869,1.367-1.869c0.82,0,1.332,0.695,1.332,1.85c0,1.481-0.802,1.871-1.344,1.871H15.18z"/>
		<path fill="#FFFFFF" d="M17.934,41.621c0,0.089,0.016,0.174,0.033,0.229c0.092,0.303,0.246,0.378,0.367,0.378
			c0.346,0,0.488-0.439,0.488-1.144c0-0.638-0.15-1.079-0.494-1.079c-0.17,0-0.312,0.186-0.363,0.384
			c-0.016,0.062-0.031,0.158-0.031,0.228V41.621z M17.035,37.805h0.898v1.876h0.014c0.178-0.276,0.412-0.435,0.756-0.435
			c0.678,0,1.02,0.769,1.02,1.769c0,1.271-0.51,1.952-1.166,1.952c-0.316,0-0.525-0.14-0.713-0.492h-0.02l-0.049,0.432h-0.771
			c0.014-0.301,0.031-0.705,0.031-1.03V37.805z"/>
		<path fill="#FFFFFF" d="M21.875,40.763c0.004-0.507-0.143-0.863-0.43-0.863c-0.326,0-0.465,0.479-0.475,0.863H21.875z
			 M20.967,41.396c0.01,0.651,0.355,0.864,0.781,0.864c0.273,0,0.504-0.059,0.676-0.126l0.123,0.645
			c-0.24,0.103-0.607,0.166-0.961,0.166c-0.967,0-1.492-0.654-1.492-1.776c0-1.205,0.609-1.927,1.408-1.927
			c0.773,0,1.201,0.638,1.201,1.683c0,0.237-0.012,0.371-0.029,0.477L20.967,41.396z"/>
	</g>
</g>
</svg>
