<?xml version="1.0" encoding="utf-8"?>
<!-- Generator: Adobe Illustrator 16.0.4, SVG Export Plug-In . SVG Version: 6.00 Build 0)  -->
<!DOCTYPE svg PUBLIC "-//W3C//DTD SVG 1.1//EN" "http://www.w3.org/Graphics/SVG/1.1/DTD/svg11.dtd">
<svg version="1.1" id="Layer_1" xmlns="http://www.w3.org/2000/svg" xmlns:xlink="http://www.w3.org/1999/xlink" x="0px" y="0px"
	 width="46px" height="46px" viewBox="0 0 46 46" enable-background="new 0 0 46 46" xml:space="preserve">
<path fill-rule="evenodd" clip-rule="evenodd" d="M27.875,11h-9.75L11,18.125v9.75L18.125,35h9.75L35,27.875v-9.75L27.875,11z
	 M30.469,27.894l-2.388,2.387c-0.292,0.293-0.768,0.293-1.061,0L23,26.395l-4.021,3.886c-0.293,0.293-0.769,0.293-1.061,0
	l-2.388-2.387c-0.292-0.293-0.292-0.768,0-1.061L19.498,23l-3.966-3.833c-0.293-0.293-0.293-0.768,0-1.061l2.386-2.387
	c0.293-0.292,0.768-0.293,1.061,0L23,19.606l4.021-3.886c0.293-0.293,0.768-0.292,1.061,0l2.386,2.387
	c0.293,0.292,0.293,0.768,0,1.061L26.502,23l3.967,3.833C30.761,27.126,30.761,27.601,30.469,27.894z"/>
</svg>
